<svg xmlns="http://www.w3.org/2000/svg" viewBox="0 0 15.5 15.5">
  <style>
    path { fill: none; stroke: #1a1815; stroke-miterlimit: 10; stroke-width: 1.2; }
    @media (prefers-color-scheme: dark) {
      path { stroke: #f4f0e8; }
    }
  </style>
  <path d="M11.43,4.07c0,2.03-1.65,3.68-3.68,3.68,0-2.03-1.65-3.68-3.68-3.68S.44,5.67.39,7.66C.44,3.67,3.67.44,7.65.39c.03,0,.06,0,.09,0s.06,0,.09,0c1.99.05,3.59,1.68,3.59,3.68Z"/>
  <path d="M15.11,7.85c-.05,3.99-3.27,7.21-7.26,7.26-.03,0-.06,0-.09,0s-.06,0-.09,0c-1.99-.05-3.59-1.68-3.59-3.68s1.65-3.68,3.68-3.68c0,2.03,1.65,3.68,3.68,3.68s3.63-1.6,3.68-3.59Z"/>
  <path d="M7.65,15.11c-3.99-.05-7.21-3.27-7.26-7.26,0-.03,0-.06,0-.09s0-.06,0-.09c.05-1.99,1.68-3.59,3.68-3.59s3.68,1.65,3.68,3.68c-2.03,0-3.68,1.65-3.68,3.68s1.6,3.63,3.59,3.68Z"/>
  <path d="M15.11,7.75s0,.06,0,.09c-.05,1.99-1.68,3.59-3.68,3.59s-3.68-1.65-3.68-3.68c2.03,0,3.68-1.65,3.68-3.68S9.83.44,7.84.39c3.99.05,7.21,3.27,7.26,7.26,0,.03,0,.06,0,.09Z"/>
</svg>
