<?xml version="1.0" encoding="UTF-8"?>
<svg id="_レイヤー_2" data-name="レイヤー 2" xmlns="http://www.w3.org/2000/svg" viewBox="0 0 89.91 15.5">
  <defs>
    <style>
      .cls-1 {
        fill: none;
        stroke: #040000;
        stroke-miterlimit: 10;
        stroke-width: .78px;
      }

      .cls-2 {
        fill: #231815;
      }
    </style>
  </defs>
  <g id="_レイヤー_1-2" data-name="レイヤー 1">
    <g>
      <g>
        <path class="cls-2" d="M27.72,2.52c.04-.2.11-.31.2-.31s.17.06.32.37l3.25,6.71,3.24-6.8c.1-.19.16-.29.26-.29s.18.12.21.37l1.08,7.36c.11.75.23,1.1.58,1.2.34.11.58.12.74.12.11,0,.19.01.19.08,0,.1-.14.13-.31.13-.3,0-1.94-.04-2.42-.07-.27-.02-.35-.06-.35-.13,0-.06.05-.09.13-.13.07-.02.11-.18.06-.51l-.71-5.24h-.05l-2.59,5.4c-.27.56-.33.67-.44.67s-.23-.24-.42-.59c-.29-.55-1.23-2.37-1.37-2.7-.11-.25-.82-1.75-1.24-2.64h-.05l-.62,4.74c-.02.21-.04.37-.04.56,0,.23.15.33.36.38.21.05.38.06.5.06.1,0,.18.02.18.08,0,.11-.11.13-.29.13-.5,0-1.04-.04-1.25-.04-.23,0-.8.04-1.18.04-.12,0-.21-.02-.21-.13,0-.06.07-.08.19-.08.09,0,.18,0,.36-.04.33-.07.43-.54.49-.94l1.18-7.76Z"/>
        <path class="cls-2" d="M52.48,11.32c-.48.18-1.24.31-1.87.31-3.49,0-4.84-2.58-4.84-4.72,0-1.94,1.39-4.61,4.88-4.61,2.84,0,4.82,1.73,4.82,4.51,0,2.09-1.32,3.42-2.07,3.92l2.39,1.23c2.51,1.29,4.09,1.42,4.9,1.42.62,0,1.5-.1,2.32-.42.07-.02.13-.06.18-.06.06,0,.11.05.11.11,0,.07-.06.11-.14.14-.71.34-2.06.89-3.77.89-1.8,0-3.07-.46-5.03-1.62l-1.87-1.1ZM53.8,7.13c0-2.88-1.79-4.26-3.43-4.26s-2.95,1-2.95,3.76,1.71,4.4,3.63,4.4c.95,0,2.75-.42,2.75-3.9Z"/>
        <path class="cls-2" d="M67.89,5.92c0-1.81,0-2.14-.02-2.52-.02-.4-.12-.59-.51-.68-.09-.02-.3-.04-.46-.04-.13,0-.2-.02-.2-.11s.08-.11.26-.11c.63,0,1.38.04,1.63.04.4,0,1.31-.04,1.68-.04.75,0,1.55.07,2.19.51.33.23.81.83.81,1.63,0,.88-.37,1.69-1.57,2.67,1.06,1.33,1.88,2.39,2.58,3.13.67.69,1.15.77,1.33.81.13.02.24.04.33.04s.14.04.14.1c0,.09-.08.12-.23.12h-1.13c-.67,0-.96-.06-1.27-.23-.51-.27-.96-.83-1.63-1.75-.48-.65-1.02-1.46-1.18-1.64-.06-.07-.13-.08-.21-.08l-1.04-.02c-.06,0-.09.02-.09.09v.17c0,1.11,0,2.05.06,2.55.04.35.11.61.46.65.18.02.44.05.58.05.1,0,.14.04.14.1,0,.08-.08.12-.24.12-.69,0-1.57-.04-1.75-.04-.23,0-.98.04-1.45.04-.15,0-.24-.04-.24-.12,0-.06.05-.1.19-.1.18,0,.32-.02.43-.05.24-.05.3-.31.35-.65.06-.5.06-1.44.06-2.54v-2.09ZM69.3,6.86c0,.13.02.18.11.21.25.08.61.12.9.12.48,0,.63-.05.84-.2.36-.26.7-.81.7-1.79,0-1.69-1.12-2.18-1.82-2.18-.3,0-.51.01-.63.05-.08.02-.11.07-.11.17v3.62Z"/>
        <path class="cls-2" d="M87.11,5.92c0-1.81,0-2.14-.02-2.52-.02-.4-.14-.61-.4-.67-.13-.04-.29-.05-.43-.05-.12,0-.19-.02-.19-.12,0-.07.1-.09.29-.09.45,0,1.2.04,1.55.04.3,0,1-.04,1.45-.04.15,0,.25.02.25.09,0,.1-.07.12-.19.12s-.21.01-.36.04c-.32.06-.42.26-.44.68-.02.38-.02.71-.02,2.52v2.09c0,1.15,0,2.09.05,2.61.04.32.12.54.48.58.17.02.43.05.61.05.13,0,.19.04.19.1,0,.08-.1.12-.23.12-.79,0-1.54-.04-1.86-.04-.27,0-1.02.04-1.5.04-.15,0-.24-.04-.24-.12,0-.06.05-.1.19-.1.18,0,.32-.02.43-.05.24-.05.31-.25.35-.59.06-.5.06-1.44.06-2.59v-2.09Z"/>
      </g>
      <g>
        <path class="cls-1" d="M11.43,4.07c0,2.03-1.65,3.68-3.68,3.68,0-2.03-1.65-3.68-3.68-3.68S.44,5.67.39,7.66C.44,3.67,3.67.44,7.65.39c.03,0,.06,0,.09,0s.06,0,.09,0c1.99.05,3.59,1.68,3.59,3.68Z"/>
        <path class="cls-1" d="M15.11,7.85c-.05,3.99-3.27,7.21-7.26,7.26-.03,0-.06,0-.09,0s-.06,0-.09,0c-1.99-.05-3.59-1.68-3.59-3.68s1.65-3.68,3.68-3.68c0,2.03,1.65,3.68,3.68,3.68s3.63-1.6,3.68-3.59Z"/>
        <path class="cls-1" d="M7.65,15.11c-3.99-.05-7.21-3.27-7.26-7.26,0-.03,0-.06,0-.09s0-.06,0-.09c.05-1.99,1.68-3.59,3.68-3.59s3.68,1.65,3.68,3.68c-2.03,0-3.68,1.65-3.68,3.68s1.6,3.63,3.59,3.68Z"/>
        <path class="cls-1" d="M15.11,7.75s0,.06,0,.09c-.05,1.99-1.68,3.59-3.68,3.59s-3.68-1.65-3.68-3.68c2.03,0,3.68-1.65,3.68-3.68S9.83.44,7.84.39c3.99.05,7.21,3.27,7.26,7.26,0,.03,0,.06,0,.09Z"/>
      </g>
    </g>
  </g>
</svg>